<svg xmlns="http://www.w3.org/2000/svg" xmlns:xlink="http://www.w3.org/1999/xlink" width="40" zoomAndPan="magnify" viewBox="0 0 30 30.000001" height="40" preserveAspectRatio="xMidYMid meet" version="1.0"><defs><clipPath id="e6e9ffc061"><path d="M 3.386719 1.125 L 26.703125 1.125 L 26.703125 27.980469 L 3.386719 27.980469 Z M 3.386719 1.125 " clip-rule="nonzero"/></clipPath><clipPath id="f9f9bde199"><path d="M 14.207031 13.921875 C 14.515625 13.8125 14.820312 13.679688 15.117188 13.53125 C 15.367188 13.746094 15.628906 13.941406 15.910156 14.125 C 15.851562 14.449219 15.8125 14.777344 15.792969 15.109375 C 15.484375 15.222656 15.183594 15.351562 14.886719 15.5 C 14.632812 15.289062 14.371094 15.089844 14.09375 14.90625 C 14.148438 14.582031 14.1875 14.257812 14.207031 13.921875 M 21.886719 15.304688 C 20.75 14.808594 19.496094 14.574219 18.25 14.625 C 17.789062 14.644531 17.332031 14.699219 16.890625 14.792969 C 17.113281 12.816406 18.152344 10.984375 19.757812 9.800781 C 21.378906 8.601562 23.410156 8.183594 25.386719 8.621094 C 24.601562 11.796875 21.5 12.9375 19.488281 12.945312 L 18.152344 13.882812 L 18.703125 13.960938 C 19.789062 14.109375 21.539062 13.941406 23.203125 13.027344 C 24.488281 12.320312 26.109375 10.921875 26.539062 8.316406 L 26.613281 7.851562 L 26.160156 7.71875 C 23.710938 7.007812 21.148438 7.453125 19.125 8.949219 C 18.128906 9.683594 17.296875 10.65625 16.722656 11.757812 C 16.507812 12.164062 16.332031 12.589844 16.191406 13.019531 C 14.589844 11.835938 13.523438 10.023438 13.300781 8.039062 C 13.074219 6.035156 13.722656 4.070312 15.089844 2.574219 C 17.449219 4.84375 16.886719 8.097656 15.886719 9.84375 L 16.03125 11.46875 L 16.375 11.03125 C 17.046875 10.164062 17.777344 8.566406 17.816406 6.667969 C 17.84375 5.199219 17.449219 3.101562 15.402344 1.421875 L 15.035156 1.125 L 14.695312 1.453125 C 12.851562 3.21875 11.957031 5.664062 12.238281 8.160156 C 12.378906 9.390625 12.804688 10.597656 13.472656 11.648438 C 13.71875 12.039062 13.996094 12.402344 14.300781 12.742188 C 12.472656 13.539062 10.371094 13.550781 8.542969 12.753906 C 6.691406 11.949219 5.316406 10.402344 4.703125 8.46875 C 7.847656 7.5625 10.382812 9.675781 11.398438 11.414062 L 12.878906 12.101562 L 12.667969 11.585938 C 12.257812 10.574219 11.238281 9.136719 9.613281 8.160156 C 8.355469 7.402344 6.339844 6.691406 3.867188 7.628906 L 3.421875 7.792969 L 3.535156 8.25 C 4.140625 10.730469 5.8125 12.726562 8.113281 13.730469 C 9.25 14.222656 10.507812 14.457031 11.75 14.40625 C 12.210938 14.390625 12.667969 14.332031 13.113281 14.238281 C 12.886719 16.21875 11.847656 18.046875 10.242188 19.230469 C 8.621094 20.429688 6.59375 20.851562 4.613281 20.414062 C 5.398438 17.238281 8.5 16.097656 10.511719 16.085938 L 11.847656 15.148438 L 11.296875 15.074219 C 10.210938 14.925781 8.460938 15.089844 6.796875 16.003906 C 5.515625 16.714844 3.890625 18.105469 3.460938 20.714844 L 3.386719 21.179688 L 3.839844 21.3125 C 6.289062 22.027344 8.851562 21.582031 10.875 20.089844 C 11.871094 19.351562 12.703125 18.382812 13.277344 17.28125 C 13.492188 16.871094 13.667969 16.449219 13.8125 16.015625 C 15.414062 17.199219 16.480469 19.015625 16.703125 20.992188 C 16.929688 22.996094 16.28125 24.964844 14.914062 26.460938 C 12.554688 24.191406 13.117188 20.9375 14.117188 19.191406 L 13.972656 17.5625 L 13.628906 18.003906 C 12.957031 18.867188 12.226562 20.46875 12.1875 22.363281 C 12.160156 23.832031 12.554688 25.933594 14.601562 27.609375 L 14.96875 27.910156 L 15.308594 27.582031 C 17.152344 25.816406 18.046875 23.375 17.761719 20.875 C 17.625 19.644531 17.199219 18.4375 16.53125 17.390625 C 16.285156 17 16.007812 16.636719 15.703125 16.296875 C 17.53125 15.5 19.632812 15.488281 21.460938 16.285156 C 23.3125 17.089844 24.6875 18.636719 25.300781 20.570312 C 22.15625 21.476562 19.617188 19.363281 18.605469 17.625 L 17.125 16.9375 L 17.332031 17.453125 C 17.746094 18.464844 18.765625 19.898438 20.390625 20.878906 C 21.648438 21.636719 23.664062 22.347656 26.136719 21.410156 L 26.582031 21.246094 L 26.46875 20.789062 C 25.863281 18.308594 24.191406 16.3125 21.890625 15.308594 " clip-rule="nonzero"/></clipPath><clipPath id="d25e68db0b"><path d="M 0.386719 0.125 L 23.703125 0.125 L 23.703125 26.980469 L 0.386719 26.980469 Z M 0.386719 0.125 " clip-rule="nonzero"/></clipPath><clipPath id="2f356e6062"><path d="M 11.207031 12.921875 C 11.515625 12.8125 11.820312 12.679688 12.117188 12.53125 C 12.367188 12.746094 12.628906 12.941406 12.910156 13.125 C 12.851562 13.449219 12.8125 13.777344 12.792969 14.109375 C 12.484375 14.222656 12.183594 14.351562 11.886719 14.5 C 11.632812 14.289062 11.371094 14.089844 11.09375 13.90625 C 11.148438 13.582031 11.1875 13.257812 11.207031 12.921875 M 18.886719 14.304688 C 17.75 13.808594 16.496094 13.574219 15.25 13.625 C 14.789062 13.644531 14.332031 13.699219 13.890625 13.792969 C 14.113281 11.816406 15.152344 9.984375 16.757812 8.800781 C 18.378906 7.601562 20.410156 7.183594 22.386719 7.621094 C 21.601562 10.796875 18.5 11.9375 16.488281 11.945312 L 15.152344 12.882812 L 15.703125 12.960938 C 16.789062 13.109375 18.539062 12.941406 20.203125 12.027344 C 21.488281 11.320312 23.109375 9.921875 23.539062 7.316406 L 23.613281 6.851562 L 23.160156 6.71875 C 20.710938 6.007812 18.148438 6.453125 16.125 7.949219 C 15.128906 8.683594 14.296875 9.65625 13.722656 10.757812 C 13.507812 11.164062 13.332031 11.589844 13.191406 12.019531 C 11.589844 10.835938 10.523438 9.023438 10.300781 7.039062 C 10.074219 5.035156 10.722656 3.070312 12.089844 1.574219 C 14.449219 3.84375 13.886719 7.097656 12.886719 8.84375 L 13.03125 10.46875 L 13.375 10.03125 C 14.046875 9.164062 14.777344 7.566406 14.816406 5.667969 C 14.84375 4.199219 14.449219 2.101562 12.402344 0.421875 L 12.035156 0.125 L 11.695312 0.453125 C 9.851562 2.21875 8.957031 4.664062 9.238281 7.160156 C 9.378906 8.390625 9.804688 9.597656 10.472656 10.648438 C 10.71875 11.039062 10.996094 11.402344 11.300781 11.742188 C 9.472656 12.539062 7.371094 12.550781 5.542969 11.753906 C 3.691406 10.949219 2.316406 9.402344 1.703125 7.46875 C 4.847656 6.5625 7.382812 8.675781 8.398438 10.414062 L 9.878906 11.101562 L 9.667969 10.585938 C 9.257812 9.574219 8.238281 8.136719 6.613281 7.160156 C 5.355469 6.402344 3.339844 5.691406 0.867188 6.628906 L 0.421875 6.792969 L 0.535156 7.25 C 1.140625 9.730469 2.8125 11.726562 5.113281 12.730469 C 6.25 13.222656 7.507812 13.457031 8.75 13.40625 C 9.210938 13.390625 9.667969 13.332031 10.113281 13.238281 C 9.886719 15.21875 8.847656 17.046875 7.242188 18.230469 C 5.621094 19.429688 3.59375 19.851562 1.613281 19.414062 C 2.398438 16.238281 5.5 15.097656 7.511719 15.085938 L 8.847656 14.148438 L 8.296875 14.074219 C 7.210938 13.925781 5.460938 14.089844 3.796875 15.003906 C 2.515625 15.714844 0.890625 17.105469 0.460938 19.714844 L 0.386719 20.179688 L 0.839844 20.3125 C 3.289062 21.027344 5.851562 20.582031 7.875 19.089844 C 8.871094 18.351562 9.703125 17.382812 10.277344 16.28125 C 10.492188 15.871094 10.667969 15.449219 10.8125 15.015625 C 12.414062 16.199219 13.480469 18.015625 13.703125 19.992188 C 13.929688 21.996094 13.28125 23.964844 11.914062 25.460938 C 9.554688 23.191406 10.117188 19.9375 11.117188 18.191406 L 10.972656 16.5625 L 10.628906 17.003906 C 9.957031 17.867188 9.226562 19.46875 9.1875 21.363281 C 9.160156 22.832031 9.554688 24.933594 11.601562 26.609375 L 11.96875 26.910156 L 12.308594 26.582031 C 14.152344 24.816406 15.046875 22.375 14.761719 19.875 C 14.625 18.644531 14.199219 17.4375 13.53125 16.390625 C 13.285156 16 13.007812 15.636719 12.703125 15.296875 C 14.53125 14.5 16.632812 14.488281 18.460938 15.285156 C 20.3125 16.089844 21.6875 17.636719 22.300781 19.570312 C 19.15625 20.476562 16.617188 18.363281 15.605469 16.625 L 14.125 15.9375 L 14.332031 16.453125 C 14.746094 17.464844 15.765625 18.898438 17.390625 19.878906 C 18.648438 20.636719 20.664062 21.347656 23.136719 20.410156 L 23.582031 20.246094 L 23.46875 19.789062 C 22.863281 17.308594 21.191406 15.3125 18.890625 14.308594 " clip-rule="nonzero"/></clipPath><clipPath id="475e057189"><rect x="0" width="24" y="0" height="27"/></clipPath></defs><g clip-path="url(#e6e9ffc061)"><g clip-path="url(#f9f9bde199)"><g transform="matrix(1, 0, 0, 1, 3, 1)"><g clip-path="url(#475e057189)"><g clip-path="url(#d25e68db0b)"><g clip-path="url(#2f356e6062)"><path fill="#2e7d32" d="M 0.386719 0.125 L 23.613281 0.125 L 23.613281 26.890625 L 0.386719 26.890625 Z M 0.386719 0.125 " fill-opacity="1" fill-rule="nonzero"/></g></g></g></g></g></g></svg>